<svg width="333" height="413" viewBox="0 0 333 413" fill="none" xmlns="http://www.w3.org/2000/svg">
<path d="M201.4 4.00006C197.467 6.00006 190.933 11.2667 186.267 16.2667C178.8 24.2667 177.867 24.8667 176.6 22.6001C170.533 11.8001 154.8 7.06673 143 12.5334C129.2 18.9334 124.8 31.8667 129 53.9334C130.133 60.0001 130 61.4001 127.8 64.4667C114.333 83.4667 119.733 111.4 141.467 134.933C145.067 138.8 145.267 139.533 143.733 143.133L142.133 147L131.067 146.333C109.4 145 94.2 157.733 68.0666 199.4C41.8 241.4 -6.6667 379.467 1.66663 388.733C5.26663 392.6 8.79996 391.933 13.8666 386.333L18.4666 381.333L14.2 391.067C6.19996 409.133 14.2666 415.067 28.6 401.733C33.5333 397.133 35.4 395.933 33.9333 398.267C29.4666 405.333 31.6 412.667 38.1333 412.667C43.7333 412.667 99.7333 369.133 137.867 335.133C198.667 280.867 222.267 237.067 208.667 203.667L205.267 195.267L211.467 189.867C220.733 181.733 221.067 181.6 227.733 186.133C266.133 212.133 306.8 205 308.067 172.133C308.333 166.533 308.667 165.933 313.4 163.8C327.333 157.533 331.667 140.2 321.933 129.733L318.8 126.4L323.733 122.267C345.6 103.933 324.533 64.8667 295.133 69.2667L289.4 70.1334L291.8 63.0667C302.067 33.3334 278 13.9334 251.533 30.6001L244.467 35.1334L241.667 25.4667C235.4 3.80006 219 -4.99994 201.4 4.00006ZM221.933 19.6667C228.6 27.0667 229.733 42.8667 224.267 52.2667C220.2 59.2001 220.4 62.8001 225.2 66.3334C229.6 69.6001 231.133 68.8667 242.333 57.9334C275.6 25.4001 292.6 40.3334 266.133 78.9334C257 92.2667 264.867 99.0001 279.933 90.7334C294.533 82.7334 306.333 82.6667 312.467 90.6667C322.4 103.8 317.467 112.733 298.067 116.8C280.6 120.467 281.933 131 300.333 135.267C311.733 137.933 314.8 143.333 308 148.667C304.333 151.6 303.533 151.6 292.133 149.267C288.867 148.6 287.267 149.067 285.133 151.2C280.267 156.067 281.533 159.467 290.867 167.067C293.8 169.4 293.533 172.8 290 178.133C282.333 189.6 267.4 190.067 246.6 179.467C240 176.133 239.467 175.067 244.933 176.2C253.933 178 260.333 172.267 256.8 165.6C251 154.6 224.533 159.333 205.533 174.867C198.867 180.267 198.533 180.4 199.933 177C205.133 164.733 232.667 145.933 248.667 143.733C258.4 142.4 262.133 136.8 257.6 130.267C252.333 122.8 226.067 131.133 207.133 146.2C193.933 156.667 194.8 152.267 210.333 130.067C222.8 112.2 224.267 108.133 219.8 104.133C214 98.8667 210.6 101.333 197.267 120.667C182.133 142.6 181.467 143 187.2 126.2C195.733 101.267 196.267 85.4667 188.733 82.8001C182 80.4001 178.867 84.2001 177.8 95.9334C176.6 109.133 167.867 135.867 162.8 141.867C161.467 143.467 161.2 140.6 162.333 136.6C169 113.4 165.533 84.6667 156.133 84.6667C149.267 84.6667 147.933 88.2001 148.6 104.867C149.267 122.067 148.733 122.2 140.6 106.667C134.133 94.2667 134.4 82.4001 141.533 72.1334L146.667 64.6667L144.467 51.5334C141.2 31.9334 143.533 26.0001 154.4 26.0001C162.067 26.0001 164.333 29.5334 164.4 41.8001C164.533 55.0001 164.533 55.0001 167.8 56.7334C172.8 59.4001 176.533 57.1334 181.8 48.3334C197.867 21.4667 213.467 10.3334 221.933 19.6667ZM179.667 156C188.267 160.467 188.667 164.867 181.533 178C177.867 184.667 177.867 184.733 175.133 182.133C170.267 177.667 163.133 174 159.333 174C154.333 174 154.667 173 162.533 164.133C168.2 157.8 172.067 154.8 175.4 154.067C175.6 154.067 177.533 154.867 179.667 156ZM136.067 163.067L141.2 165.333L129.933 182.8C123.733 192.4 113.667 207.133 107.533 215.467C93 235.333 81.1333 254.2 68.0666 278.133C62.2 288.8 54.8 301.4 51.6666 306.133C38.3333 325.867 28.6666 339.467 28.2 339C27.5333 338.333 43 292.333 50.9333 271.333C69.8666 221.333 100.6 172.4 118.667 163.467C125.467 160.067 129.333 160 136.067 163.067ZM162.6 192.867C170.4 198.4 165.533 211.867 143.733 245.133C122.133 278.067 76 333.133 47.7333 360L43.5333 363.933L45.7333 358.667C58.6666 327.333 97.4666 257.4 117.667 228.933C141.333 195.667 153.133 186.133 162.6 192.867ZM193.8 207.8C208.4 239.133 175.133 286.533 90.3333 355.333C81.9333 362.133 73.8666 368.667 72.4666 369.867C65.4666 375.733 96.2 332.333 113.467 312C144 276 170.133 237.8 178.4 217C185.867 198.4 188.667 196.733 193.8 207.8Z" fill="#EFF2F1"/>
</svg>
