<?xml version="1.0" standalone="no"?>
<!DOCTYPE svg PUBLIC "-//W3C//DTD SVG 20010904//EN"
 "http://www.w3.org/TR/2001/REC-SVG-20010904/DTD/svg10.dtd">
<svg version="1.0" xmlns="http://www.w3.org/2000/svg"
 width="300.000000pt" height="346.000000pt" viewBox="0 0 300.000000 346.000000"
 preserveAspectRatio="xMidYMid meet">
<metadata>
Created by potrace 1.10, written by Peter Selinger 2001-2011
</metadata>
<g transform="translate(0.000000,346.000000) scale(0.050000,-0.050000)"
fill="#000000" stroke="none">
<path d="M3426 6530 c-59 -30 -157 -109 -227 -184 -112 -120 -126 -129 -145
-95 -91 162 -327 233 -504 151 -207 -96 -273 -290 -210 -621 17 -91 15 -112
-18 -158 -202 -285 -121 -704 205 -1057 54 -58 57 -69 34 -123 l-24 -58 -166
10 c-325 20 -553 -171 -945 -796 -394 -630 -1121 -2701 -996 -2840 54 -58 107
-48 183 36 l69 75 -64 -146 c-120 -271 1 -360 216 -160 74 69 102 87 80 52
-67 -106 -35 -216 63 -216 84 0 924 653 1496 1163 912 814 1266 1471 1062
1972 l-51 126 93 81 c139 122 144 124 244 56 576 -390 1186 -283 1205 210 4
84 9 93 80 125 209 94 274 354 128 511 l-47 50 74 62 c328 275 12 861 -429
795 l-86 -13 36 106 c154 446 -207 737 -604 487 l-106 -68 -42 145 c-94 325
-340 457 -604 322z m308 -235 c100 -111 117 -348 35 -489 -61 -104 -58 -158
14 -211 66 -49 89 -38 257 126 499 488 754 264 357 -315 -137 -200 -19 -301
207 -177 219 120 396 121 488 1 149 -197 75 -331 -216 -392 -262 -55 -242
-213 34 -277 171 -40 217 -121 115 -201 -55 -44 -67 -44 -238 -9 -49 10 -73 3
-105 -29 -73 -73 -54 -124 86 -238 44 -35 40 -86 -13 -166 -115 -172 -339
-179 -651 -20 -99 50 -107 66 -25 49 135 -27 231 59 178 159 -87 165 -484 94
-769 -139 -100 -81 -105 -83 -84 -32 78 184 491 466 731 499 146 20 202 104
134 202 -79 112 -473 -13 -757 -239 -198 -157 -185 -91 48 242 187 268 209
329 142 389 -87 79 -138 42 -338 -248 -227 -329 -237 -335 -151 -83 128 374
136 611 23 651 -101 36 -148 -21 -164 -197 -18 -198 -149 -599 -225 -689 -20
-24 -24 19 -7 79 100 348 48 779 -93 779 -103 0 -123 -53 -113 -303 10 -258 2
-260 -120 -27 -97 186 -93 364 14 518 l77 112 -33 197 c-49 294 -14 383 149
383 115 0 149 -53 150 -237 2 -198 2 -198 51 -224 75 -40 131 -6 210 126 241
403 475 570 602 430z m-634 -2045 c129 -67 135 -133 28 -330 -55 -100 -55
-101 -96 -62 -73 67 -180 122 -237 122 -75 0 -70 15 48 148 85 95 143 140 193
151 3 0 32 -12 64 -29z m-654 -106 l77 -34 -169 -262 c-93 -144 -244 -365
-336 -490 -218 -298 -396 -581 -592 -940 -88 -160 -199 -349 -246 -420 -200
-296 -345 -500 -352 -493 -10 10 222 700 341 1015 284 750 745 1484 1016 1618
102 51 160 52 261 6z m398 -447 c117 -83 44 -285 -283 -784 -324 -494 -1016
-1320 -1440 -1723 l-63 -59 33 79 c194 470 776 1519 1079 1946 355 499 532
642 674 541z m468 -224 c219 -470 -280 -1181 -1552 -2213 -126 -102 -247 -200
-268 -218 -105 -88 356 563 615 868 458 540 850 1113 974 1425 112 279 154
304 231 138z"/>
</g>
</svg>
