<?xml version="1.0" standalone="no"?>
<!DOCTYPE svg PUBLIC "-//W3C//DTD SVG 20010904//EN"
 "http://www.w3.org/TR/2001/REC-SVG-20010904/DTD/svg10.dtd">
<svg version="1.0" xmlns="http://www.w3.org/2000/svg"
 width="1864.000000pt" height="1604.000000pt" viewBox="0 0 1864.000000 1604.000000"
 preserveAspectRatio="xMidYMid meet">

<g transform="translate(0.000000,1604.000000) scale(0.100000,-0.100000)"
fill="#000000" stroke="none">
<path d="M6520 13178 c-31 -16 -51 -36 -67 -67 l-23 -44 2 -5073 3 -5073 21
-28 c11 -15 36 -38 54 -51 l33 -22 2436 2 2436 3 34 24 c18 13 42 42 52 65 18
40 19 188 19 5086 0 3281 -4 5057 -10 5080 -11 41 -61 94 -103 109 -20 8 -762
11 -2436 11 l-2407 0 -44 -22z m4660 -1928 l0 -1620 -2210 0 -2210 0 0 1613
c0 888 3 1617 7 1620 3 4 998 7 2210 7 l2203 0 0 -1620z m0 -5030 l0 -3070
-2207 2 -2208 3 -3 3068 -2 3067 2210 0 2210 0 0 -3070z"/>
<path d="M7076 12480 c-37 -12 -64 -37 -87 -82 -18 -36 -19 -78 -19 -1149 0
-1102 0 -1112 21 -1148 11 -20 36 -48 56 -61 36 -25 39 -25 284 -28 233 -3
250 -2 288 17 22 12 52 37 68 58 l28 36 0 1126 0 1126 -24 39 c-44 70 -71 76
-346 75 -132 0 -253 -5 -269 -9z m304 -1225 l0 -905 -40 0 -40 0 0 898 c0 494
3 902 7 905 3 4 21 7 40 7 l33 0 0 -905z"/>
<path d="M7065 8890 c-24 -12 -52 -37 -68 -62 l-27 -42 0 -1665 0 -1664 25
-43 c16 -28 39 -49 68 -63 40 -20 60 -21 280 -21 177 0 246 3 270 14 49 20 95
78 102 128 3 24 5 782 3 1685 l-3 1641 -30 38 c-58 71 -70 74 -340 74 -219 0
-243 -2 -280 -20z m313 -1767 l2 -1453 -40 0 -40 0 0 1448 c0 797 3 1452 7
1456 4 4 21 6 38 4 l30 -3 3 -1452z"/>
</g>
</svg>
