<svg width="122" height="124" viewBox="0 0 122 124" fill="none" xmlns="http://www.w3.org/2000/svg">
<path fill-rule="evenodd" clip-rule="evenodd" d="M74.62 51.1101C75.66 52.1501 75.66 53.8501 74.62 54.8901C73.58 55.9301 71.88 55.9301 70.84 54.8901L54.94 38.9901C45.86 49.2901 37.86 60.1601 30.8 71.3501L40.62 81.1701C41.66 82.2101 41.66 83.9101 40.62 84.9501C39.58 85.9901 37.88 85.9901 36.84 84.9501L27.92 76.0301L27.91 76.0501C20.07 89.0601 13.48 102.45 7.91001 115.87C14.24 113.66 20.76 110.93 27.48 107.62L20 100.16C18.96 99.1201 18.96 97.4201 20 96.3801C21.04 95.3401 22.74 95.3401 23.78 96.3801L32.47 105.07C36.34 103.03 40.28 100.79 44.29 98.3401C51.55 93.9101 59.05 88.7901 66.81 82.9101L50.69 66.7901C49.65 65.7501 49.65 64.0501 50.69 63.0101C51.73 61.9701 53.43 61.9701 54.47 63.0101L71.08 79.6201C76.65 75.2501 82.36 70.4901 88.22 65.3001L89.23 64.4001C89.09 64.5301 89 64.6001 89.23 64.4001C94.05 60.1601 97.21 57.3701 96.76 51.4201C96.73 50.9901 96.68 50.5701 96.63 50.1601C96.57 49.7301 96.49 49.2701 96.39 48.7601C95.94 46.4301 95.02 44.1301 93.77 41.9301C92.4 39.5301 90.62 37.2501 88.6 35.2101C86.8 33.3901 84.8 31.7601 82.71 30.3701C80.63 28.9901 78.48 27.8801 76.36 27.0901C75.87 26.9101 75.36 26.7401 74.83 26.5901C74.32 26.4501 73.86 26.3401 73.44 26.2601C67.29 25.1101 63.52 29.3601 58.97 34.4801L58.5 35.0001L74.62 51.1101ZM121.36 36.3701C116.28 30.1501 110.69 27.0801 104.41 27.1101C112.08 21.7301 117.5 12.4701 118.4 3.3501C108.05 4.7001 99.62 10.0001 94.58 18.0201C94.86 11.4501 91.8 5.6201 85.34 0.350098C80.46 6.4801 78.37 15.5401 82.54 23.6701C81.15 22.9301 79.74 22.3001 78.33 21.7701C77.61 21.5001 76.96 21.2901 76.36 21.1201C75.74 20.9401 75.11 20.8001 74.46 20.6801C65.17 18.9501 60.44 24.2901 54.72 30.7301C54.1 31.4301 53.46 32.1401 52.98 32.6701C41.37 45.4701 31.48 59.0901 23.02 73.1201C14.56 87.1601 7.53001 101.63 1.65001 116.11C1.26001 117.07 1.20001 117.2 1.16001 117.31C0.170012 119.65 -0.309988 120.79 1.27001 122.31C2.71001 123.69 3.82001 123.3 6.00001 122.53C6.57001 122.33 7.26001 122.08 7.42001 122.03C19.99 117.85 33.2 111.76 47.24 103.19C61.23 94.6501 76.07 83.6201 91.97 69.5501C94.09 67.6701 91.58 69.9001 92.98 68.6701C99.08 63.3001 103.1 59.7601 102.42 51.0001C102.38 50.5101 102.32 49.9701 102.24 49.3901C102.16 48.8201 102.07 48.2601 101.96 47.7001C101.42 44.9201 100.38 42.2101 98.97 39.6301C106.86 43.1701 115.46 41.0601 121.36 36.3701ZM89.23 64.4001C89.87 63.8301 89.47 64.1801 89.23 64.4001Z" fill="white"/>
<path d="M89.23 64.4001L88.22 65.3001C82.36 70.4901 76.65 75.2501 71.08 79.6201L54.47 63.0101C53.43 61.9701 51.73 61.9701 50.69 63.0101C49.65 64.0501 49.65 65.7501 50.69 66.7901L66.81 82.9101C59.05 88.7901 51.55 93.9101 44.29 98.3401C40.28 100.79 36.34 103.03 32.47 105.07L23.78 96.3801C22.74 95.3401 21.04 95.3401 20 96.3801C18.96 97.4201 18.96 99.1201 20 100.16L27.48 107.62C20.76 110.93 14.24 113.66 7.91001 115.87C13.48 102.45 20.07 89.0601 27.91 76.0501L27.92 76.0301L36.84 84.9501C37.88 85.9901 39.58 85.9901 40.62 84.9501C41.66 83.9101 41.66 82.2101 40.62 81.1701L30.8 71.3501C37.86 60.1601 45.86 49.2901 54.94 38.9901L70.84 54.8901C71.88 55.9301 73.58 55.9301 74.62 54.8901C75.66 53.8501 75.66 52.1501 74.62 51.1101L58.5 35.0001L58.97 34.4801C63.52 29.3601 67.29 25.1101 73.44 26.2601C73.86 26.3401 74.32 26.4501 74.83 26.5901C75.36 26.7401 75.87 26.9101 76.36 27.0901C78.48 27.8801 80.63 28.9901 82.71 30.3701C84.8 31.7601 86.8 33.3901 88.6 35.2101C90.62 37.2501 92.4 39.5301 93.77 41.9301C95.02 44.1301 95.94 46.4301 96.39 48.7601C96.49 49.2701 96.57 49.7301 96.63 50.1601C96.68 50.5701 96.73 50.9901 96.76 51.4201C97.21 57.3701 94.05 60.1601 89.23 64.4001ZM89.23 64.4001C89 64.6001 89.09 64.5301 89.23 64.4001ZM89.23 64.4001C89.47 64.1801 89.87 63.8301 89.23 64.4001ZM121.36 36.3701C116.28 30.1501 110.69 27.0801 104.41 27.1101C112.08 21.7301 117.5 12.4701 118.4 3.3501C108.05 4.7001 99.62 10.0001 94.58 18.0201C94.86 11.4501 91.8 5.6201 85.34 0.350098C80.46 6.4801 78.37 15.5401 82.54 23.6701C81.15 22.9301 79.74 22.3001 78.33 21.7701C77.61 21.5001 76.96 21.2901 76.36 21.1201C75.74 20.9401 75.11 20.8001 74.46 20.6801C65.17 18.9501 60.44 24.2901 54.72 30.7301C54.1 31.4301 53.46 32.1401 52.98 32.6701C41.37 45.4701 31.48 59.0901 23.02 73.1201C14.56 87.1601 7.53001 101.63 1.65001 116.11C1.26001 117.07 1.20001 117.2 1.16001 117.31C0.170012 119.65 -0.309988 120.79 1.27001 122.31C2.71001 123.69 3.82001 123.3 6.00001 122.53C6.57001 122.33 7.26001 122.08 7.42001 122.03C19.99 117.85 33.2 111.76 47.24 103.19C61.23 94.6501 76.07 83.6201 91.97 69.5501C94.09 67.6701 91.58 69.9001 92.98 68.6701C99.08 63.3001 103.1 59.7601 102.42 51.0001C102.38 50.5101 102.32 49.9701 102.24 49.3901C102.16 48.8201 102.07 48.2601 101.96 47.7001C101.42 44.9201 100.38 42.2101 98.97 39.6301C106.86 43.1701 115.46 41.0601 121.36 36.3701Z" stroke="white" stroke-width="0.5" stroke-miterlimit="2.6131"/>
</svg>
